<svg width="218" height="219" viewBox="0 0 218 219" fill="none" xmlns="http://www.w3.org/2000/svg">
<g clip-path="url(#clip0_777_3060)">
<path d="M109 218.635C104.64 218.635 100.28 217.545 96.3557 215.365L21.3637 174.163C12.2073 169.149 6.53931 159.557 6.53931 148.875V70.3947C6.53931 59.7126 12.2071 50.1207 21.3637 45.1067L63.2197 21.9987C65.3997 20.9087 68.0153 21.563 69.1053 23.743C70.1953 25.923 69.541 28.5387 67.361 29.6287L25.505 52.7367C19.1836 56.2245 15.2594 62.9823 15.2594 70.3945V148.874C15.2594 156.287 19.1837 163.044 25.505 166.532L100.497 207.734C105.729 210.569 112.051 210.569 117.283 207.734L130.798 200.322C132.978 199.232 135.594 199.886 136.684 202.066C137.774 204.246 137.12 206.862 134.94 207.952L121.424 215.364C117.719 217.544 113.359 218.634 108.999 218.634L109 218.635Z" fill="#89B349"/>
<path d="M57.3341 56.0068C56.8984 56.0068 56.462 56.0068 56.0263 55.7889C53.6285 55.1346 52.5385 52.7367 53.1919 50.3389L59.9497 28.7569L38.8037 21.9991C36.4059 21.3448 35.3159 18.7291 35.9694 16.5491C36.6237 14.1505 39.2394 12.8427 41.4194 13.7147L66.7074 21.7804C68.8874 22.4347 70.1952 24.8325 69.5417 27.2304L61.4754 52.9544C61.0397 54.6987 59.2954 56.0065 57.3339 56.0065L57.3341 56.0068Z" fill="#89B349"/>
<path d="M152.382 197.925C150.856 197.925 149.33 197.053 148.458 195.745C147.368 193.565 148.022 190.949 150.202 189.859L192.058 166.751C198.38 163.263 202.304 156.505 202.304 149.093L202.304 70.3953C202.304 62.9831 198.38 56.2253 192.059 52.7375L117.285 11.5355C112.053 8.70112 105.73 8.70112 100.499 11.5355L86.9834 18.9477C84.8034 20.0377 82.1878 19.3834 81.0978 17.2034C80.0064 15.0234 80.6607 12.4077 82.8407 11.3177L96.3563 3.90556C104.204 -0.454441 113.578 -0.454441 121.644 3.90556L196.636 45.1076C205.793 50.1212 211.461 59.7132 211.461 70.3956V148.876C211.461 159.558 205.793 169.15 196.636 174.164L154.562 197.272C153.908 197.708 153.254 197.926 152.382 197.926L152.382 197.925Z" fill="#89B349"/>
<path d="M177.67 205.991C177.234 205.991 176.798 205.991 176.362 205.773L151.074 197.707C148.894 197.053 147.586 194.655 148.24 192.257L156.305 166.533C156.96 164.135 159.358 163.045 161.755 163.699C164.153 164.353 165.243 166.751 164.59 169.149L157.832 190.731L178.978 197.489C181.376 198.143 182.466 200.759 181.812 202.939C181.376 204.683 179.632 205.991 177.67 205.991L177.67 205.991Z" fill="#89B349"/>
<path d="M177.67 205.991C177.234 205.991 176.798 205.991 176.362 205.773L151.074 197.707C148.894 197.053 147.586 194.655 148.24 192.257L156.305 166.533C156.96 164.135 159.358 163.045 161.755 163.699C164.153 164.353 165.243 166.751 164.59 169.149L157.832 190.731L178.978 197.489C181.376 198.143 182.466 200.759 181.812 202.939C181.376 204.683 179.632 205.991 177.67 205.991L177.67 205.991Z" fill="#89B349"/>
<path d="M143.88 89.3608C141.482 89.3608 139.52 87.3986 139.52 85.0008C139.52 82.6029 141.482 80.6408 143.88 80.6408H147.804C152.819 80.6408 156.96 76.0629 156.96 70.8308C156.96 65.5986 152.818 61.4564 147.804 61.2386H143.662V57.0964C143.444 44.452 134.07 34.2064 122.952 34.2064C115.322 34.2064 108.347 39.002 104.64 46.632L103.115 49.6842L99.8446 49.0299C92.2146 47.7221 85.0202 52.0821 82.4046 59.2756L81.3146 62.3277L78.0446 61.892H77.1724C72.1581 61.892 67.7981 66.252 67.7981 71.4842C67.7981 74.0998 68.6702 76.4986 70.6324 78.242C72.3767 79.9863 72.3767 82.8198 70.6324 84.3464C68.8882 86.0907 66.0546 86.0907 64.5281 84.3464C61.0403 80.8586 59.2959 76.2808 59.2959 71.4842C59.2959 61.892 66.4903 54.0442 75.8637 53.3898C80.2237 45.1055 89.1615 39.8742 98.5357 40.092C103.986 30.9364 113.141 25.4864 123.17 25.4864C137.994 25.4864 150.42 37.6942 152.382 53.1724C160.23 55.1346 166.116 62.328 166.116 70.8302C166.116 80.858 158.05 89.1422 148.458 89.3602L143.88 89.3608Z" fill="#89B349"/>
<path d="M109.872 191.603C107.474 191.603 105.512 189.641 105.512 187.243V173.508C105.512 171.111 107.474 169.148 109.872 169.148C112.27 169.148 114.232 171.111 114.232 173.508V187.243C114.232 189.641 112.27 191.603 109.872 191.603Z" fill="#89B349"/>
<path d="M115.976 177.433C112.924 177.433 110.09 176.343 108.128 174.163C105.73 171.547 104.858 168.058 105.948 164.788C107.474 159.338 110.308 154.978 113.796 151.708C122.952 143.424 137.34 143.424 137.994 143.424C140.392 143.424 142.354 145.386 142.354 147.784C142.354 148.438 142.354 161.736 132.98 170.238C129.274 173.508 124.695 175.906 118.81 177.214C117.72 177.432 116.848 177.432 115.976 177.432V177.433ZM132.763 152.581C128.838 153.235 123.388 154.761 119.465 158.249C117.067 160.429 115.105 163.481 114.015 167.404C114.015 167.622 113.797 167.84 114.233 168.277C114.668 168.712 115.323 169.149 116.413 168.712C120.773 167.622 124.26 165.878 126.877 163.698C130.583 160.429 132.108 156.069 132.763 152.581Z" fill="#89B349"/>
<path d="M105.294 185.063C104.422 185.063 103.768 185.063 102.896 184.845C98.5363 183.755 95.0484 181.575 92.4319 178.959C85.6741 171.984 85.6741 161.084 85.6741 160.647C85.6741 158.249 87.6363 156.287 90.0341 156.287C90.4698 156.287 101.152 156.287 108.128 163.263C110.744 166.097 112.706 169.585 113.796 173.945C114.668 176.997 113.796 180.267 111.398 182.665C109.872 184.191 107.692 185.063 105.294 185.063ZM95.0477 165.443C95.702 167.841 96.792 170.675 98.7533 172.637C100.279 174.381 102.459 175.471 105.293 176.343V176.125C104.858 174.163 103.768 171.329 101.806 169.149C99.8441 167.187 97.4455 166.097 95.0477 165.443Z" fill="#89B349"/>
<path d="M130.582 195.527H90.9061C88.5083 195.527 86.5461 193.565 86.5461 191.167C86.5461 188.769 88.5083 186.807 90.9061 186.807H130.364C132.762 186.807 134.724 188.769 134.724 191.167C134.725 193.565 132.981 195.527 130.583 195.527H130.582Z" fill="#89B349"/>
<path d="M68.2341 136.667C56.462 136.667 47.0881 127.075 47.0881 115.521C47.0881 103.749 56.6803 94.3748 68.2341 94.3748C74.7741 94.3748 80.6598 97.2091 84.802 102.223C86.3277 104.185 86.1098 106.8 84.1477 108.327C82.1855 109.853 79.5698 109.635 78.0433 107.673C75.6455 104.62 72.1577 103.095 68.2333 103.095C61.2577 103.095 55.8077 108.763 55.8077 115.52C55.8077 122.278 61.4755 127.946 68.2333 127.946C71.5033 127.946 74.7733 126.638 76.9533 124.24C78.6976 122.496 81.3133 122.496 83.0577 124.24C84.8019 125.985 84.8019 128.6 83.0577 130.345C79.352 134.486 73.902 136.666 68.234 136.666L68.2341 136.667Z" fill="#89B349"/>
<path d="M109.436 136.667C98.1005 136.667 88.9441 127.511 88.9441 116.175C88.9441 104.839 98.0997 95.6827 109.436 95.6827C120.772 95.6827 129.928 104.838 129.928 116.175C129.928 127.51 120.772 136.667 109.436 136.667ZM109.436 104.403C102.896 104.403 97.6639 109.635 97.6639 116.175C97.6639 122.715 102.896 127.947 109.436 127.947C115.976 127.947 121.208 122.715 121.208 116.175C121.208 109.635 115.976 104.403 109.436 104.403Z" fill="#89B349"/>
<path d="M162.192 136.667H138.648C136.25 136.667 134.288 134.705 134.288 132.307C134.288 124.459 142.136 119.881 148.894 115.957C152.599 113.777 158.268 110.507 158.268 108.545C158.268 105.275 153.472 104.185 150.638 104.185C148.022 104.185 143.008 105.057 143.008 108.762C143.008 111.16 141.046 113.122 138.648 113.122C136.25 113.122 134.288 111.16 134.288 108.762C134.506 101.132 141.264 95.6824 150.856 95.6824C160.23 95.6824 167.206 101.35 167.206 108.762C167.206 115.957 160.23 119.88 153.472 123.805C151.074 125.112 148.457 126.639 146.496 128.165H162.41C164.808 128.165 166.77 130.127 166.77 132.525C166.552 134.705 164.59 136.667 162.192 136.667H162.192Z" fill="#89B349"/>
</g>
<defs>
<clipPath id="clip0_777_3060">
<rect width="218" height="218" fill="white" transform="translate(0 0.634766)"/>
</clipPath>
</defs>
</svg>
